# xmcd
#
# Track frame offsets:
#	150
#	18817
#	37083
#	56916
#	74908
#	94677
#	111735
#	129714
#	147864
#	162973
#	180076
#	194347
#	214751
#	234830
#	250022
#	281509
#
# Disc length: 3768 seconds
#
# Revision: 0
# Processed by: cddbd v1.5.2PL0 Copyright (c) Steve Scherf et al.
# Submitted via: audiograbber 1.83.01
#
DISCID=eb0eb610
DTITLE=Trisha Yearwood - chartbuster # 90278
DYEAR=1900
DGENRE=
TTITLE0=Real Live Woman
TTITLE1=Down On My Knees
TTITLE2=I Don't Paint Myself Into Corners
TTITLE3=On A Bus To St Cloud
TTITLE4=Walkaway Joe
TTITLE5=You Say You Will
TTITLE6=Better Your Heart Than Mine
TTITLE7=I Would've Loved You Anyway
TTITLE8=Where Are You Now
TTITLE9=I Need You
TTITLE10=I Wanna Go So Far
TTITLE11=I'll Still Love You More
TTITLE12=Something So Right
TTITLE13=You Can Sleep While I Drive
TTITLE14=You're Where I Belong
TTITLE15=Data
EXTD=
EXTT0=
EXTT1=
EXTT2=
EXTT3=
EXTT4=
EXTT5=
EXTT6=
EXTT7=
EXTT8=
EXTT9=
EXTT10=
EXTT11=
EXTT12=
EXTT13=
EXTT14=
EXTT15=
PLAYORDER=
